<svg width="16" height="15" viewBox="0 0 16 15" fill="none" xmlns="http://www.w3.org/2000/svg">
<path d="M0 2C0 0.89543 0.895431 0 2 0H14C15.1046 0 16 0.895431 16 2V13C16 14.1046 15.1046 15 14 15H2C0.895431 15 0 14.1046 0 13V2Z"/>
<path d="M6.49574 10.3117L3.888 7.82401L3 8.66517L6.49574 12L14 4.84116L13.1182 4L6.49574 10.3117Z" fill="white"/>
<path fill-rule="evenodd" clip-rule="evenodd" d="M3.88801 7.82402L6.49574 10.3117L13.1182 4.00001L14 4.84117L6.49574 12L3 8.66519L3.88801 7.82402ZM6.4958 10.0354L13.1183 3.72366L14.2897 4.84117L6.49574 12.2764L2.70972 8.66467L3.88849 7.54808L6.4958 10.0354Z" fill="white"/>
</svg>
